<svg width="255" height="171" viewBox="0 0 255 171" fill="none" xmlns="http://www.w3.org/2000/svg">
<g filter="url(#filter0_d_2039_81)">
<path d="M32 21.4091C32 16.9908 35.5817 13.4091 40 13.4091H232C236.418 13.4091 240 16.9908 240 21.4091V51.4091H32V21.4091Z" fill="#7551DC"/>
<path d="M44.416 37.4091L48.544 26.2091H50.4L54.496 37.4091H52.704L51.744 34.6731H47.168L46.208 37.4091H44.416ZM47.648 33.3291H51.264L49.456 28.2251L47.648 33.3291ZM57.79 37.6011C56.83 37.6011 56.0727 37.3024 55.518 36.7051C54.974 36.1078 54.702 35.2171 54.702 34.0331V29.4731H56.398V33.8571C56.398 35.3931 57.0273 36.1611 58.286 36.1611C58.9153 36.1611 59.4327 35.9371 59.838 35.4891C60.2433 35.0411 60.446 34.4011 60.446 33.5691V29.4731H62.142V37.4091H60.638L60.51 36.0171C60.2647 36.5078 59.902 36.8971 59.422 37.1851C58.9527 37.4624 58.4087 37.6011 57.79 37.6011ZM66.5875 34.9771C66.1715 34.9771 65.7875 34.9291 65.4355 34.8331L64.7475 35.5051C64.8648 35.5798 65.0088 35.6438 65.1795 35.6971C65.3502 35.7504 65.5902 35.7984 65.8995 35.8411C66.2088 35.8838 66.6302 35.9264 67.1635 35.9691C68.2195 36.0651 68.9822 36.3211 69.4515 36.7371C69.9208 37.1424 70.1555 37.6864 70.1555 38.3691C70.1555 38.8384 70.0275 39.2811 69.7715 39.6971C69.5262 40.1238 69.1368 40.4651 68.6035 40.7211C68.0808 40.9878 67.4088 41.1211 66.5875 41.1211C65.4782 41.1211 64.5768 40.9078 63.8835 40.4811C63.2008 40.0651 62.8595 39.4304 62.8595 38.5771C62.8595 38.2464 62.9448 37.9158 63.1155 37.5851C63.2968 37.2651 63.5795 36.9611 63.9635 36.6731C63.7395 36.5771 63.5422 36.4758 63.3715 36.3691C63.2115 36.2518 63.0675 36.1344 62.9395 36.0171V35.6331L64.3155 34.2251C63.6968 33.6918 63.3875 32.9931 63.3875 32.1291C63.3875 31.6064 63.5102 31.1318 63.7555 30.7051C64.0115 30.2678 64.3795 29.9211 64.8595 29.6651C65.3395 29.4091 65.9155 29.2811 66.5875 29.2811C67.0355 29.2811 67.4515 29.3451 67.8355 29.4731H70.7955V30.5931L69.3875 30.6731C69.6435 31.1104 69.7715 31.5958 69.7715 32.1291C69.7715 32.6624 69.6435 33.1424 69.3875 33.5691C69.1422 33.9958 68.7795 34.3371 68.2995 34.5931C67.8302 34.8491 67.2595 34.9771 66.5875 34.9771ZM66.5875 33.6491C67.0782 33.6491 67.4728 33.5211 67.7715 33.2651C68.0808 32.9984 68.2355 32.6251 68.2355 32.1451C68.2355 31.6544 68.0808 31.2811 67.7715 31.0251C67.4728 30.7691 67.0782 30.6411 66.5875 30.6411C66.0862 30.6411 65.6808 30.7691 65.3715 31.0251C65.0728 31.2811 64.9235 31.6544 64.9235 32.1451C64.9235 32.6251 65.0728 32.9984 65.3715 33.2651C65.6808 33.5211 66.0862 33.6491 66.5875 33.6491ZM64.4595 38.4171C64.4595 38.8758 64.6622 39.2171 65.0675 39.4411C65.4728 39.6758 65.9795 39.7931 66.5875 39.7931C67.1742 39.7931 67.6488 39.6651 68.0115 39.4091C68.3742 39.1638 68.5555 38.8331 68.5555 38.4171C68.5555 38.1078 68.4328 37.8411 68.1875 37.6171C67.9422 37.4038 67.4782 37.2704 66.7955 37.2171C66.2835 37.1851 65.8302 37.1371 65.4355 37.0731C65.0622 37.2758 64.8062 37.4944 64.6675 37.7291C64.5288 37.9638 64.4595 38.1931 64.4595 38.4171ZM74.2763 37.6011C73.3163 37.6011 72.5589 37.3024 72.0043 36.7051C71.4603 36.1078 71.1883 35.2171 71.1883 34.0331V29.4731H72.8843V33.8571C72.8843 35.3931 73.5136 36.1611 74.7723 36.1611C75.4016 36.1611 75.9189 35.9371 76.3243 35.4891C76.7296 35.0411 76.9323 34.4011 76.9323 33.5691V29.4731H78.6283V37.4091H77.1243L76.9963 36.0171C76.7509 36.5078 76.3883 36.8971 75.9083 37.1851C75.4389 37.4624 74.8949 37.6011 74.2763 37.6011ZM82.9938 37.6011C81.9911 37.6011 81.1644 37.3558 80.5137 36.8651C79.8631 36.3744 79.4897 35.7238 79.3937 34.9131H81.1057C81.1911 35.2758 81.3937 35.5904 81.7137 35.8571C82.0337 36.1131 82.4551 36.2411 82.9777 36.2411C83.4897 36.2411 83.8631 36.1344 84.0978 35.9211C84.3324 35.7078 84.4497 35.4624 84.4497 35.1851C84.4497 34.7798 84.2844 34.5078 83.9538 34.3691C83.6338 34.2198 83.1858 34.0864 82.6098 33.9691C82.1618 33.8731 81.7138 33.7451 81.2657 33.5851C80.8284 33.4251 80.4604 33.2011 80.1617 32.9131C79.8737 32.6144 79.7297 32.2144 79.7297 31.7131C79.7297 31.0198 79.9964 30.4438 80.5297 29.9851C81.0631 29.5158 81.8098 29.2811 82.7698 29.2811C83.6551 29.2811 84.3698 29.4944 84.9138 29.9211C85.4684 30.3478 85.7937 30.9504 85.8898 31.7291H84.2578C84.2044 31.3878 84.0444 31.1211 83.7778 30.9291C83.5218 30.7371 83.1751 30.6411 82.7378 30.6411C82.3111 30.6411 81.9804 30.7318 81.7457 30.9131C81.5111 31.0838 81.3937 31.3078 81.3937 31.5851C81.3937 31.8624 81.5537 32.0811 81.8737 32.2411C82.2044 32.4011 82.6364 32.5451 83.1698 32.6731C83.7031 32.7904 84.1938 32.9291 84.6418 33.0891C85.1004 33.2384 85.4684 33.4624 85.7457 33.7611C86.0231 34.0598 86.1618 34.4971 86.1618 35.0731C86.1724 35.7984 85.8898 36.4011 85.3138 36.8811C84.7484 37.3611 83.9751 37.6011 82.9938 37.6011ZM90.0844 37.4091C89.3057 37.4091 88.687 37.2224 88.2284 36.8491C87.7697 36.4651 87.5404 35.7878 87.5404 34.8171V30.8971H86.1804V29.4731H87.5404L87.7484 27.4571H89.2364V29.4731H91.4764V30.8971H89.2364V34.8171C89.2364 35.2544 89.327 35.5584 89.5084 35.7291C89.7004 35.8891 90.0257 35.9691 90.4844 35.9691H91.3964V37.4091H90.0844ZM95.1764 37.4091V36.1931C95.9017 35.6171 96.595 35.0358 97.256 34.4491C97.918 33.8624 98.504 33.2864 99.016 32.7211C99.539 32.1451 99.95 31.5851 100.248 31.0411C100.547 30.4864 100.696 29.9531 100.696 29.4411C100.696 29.0998 100.638 28.7798 100.52 28.4811C100.403 28.1718 100.211 27.9264 99.944 27.7451C99.678 27.5531 99.32 27.4571 98.872 27.4571C98.2 27.4571 97.694 27.6704 97.352 28.0971C97.022 28.5238 96.8617 29.0358 96.8724 29.6331H95.2244C95.235 28.8438 95.4004 28.1824 95.7204 27.6491C96.051 27.1158 96.4884 26.7104 97.032 26.4331C97.587 26.1558 98.211 26.0171 98.904 26.0171C99.96 26.0171 100.803 26.3158 101.432 26.9131C102.072 27.4998 102.392 28.3211 102.392 29.3771C102.392 30.0064 102.238 30.6304 101.928 31.2491C101.63 31.8678 101.235 32.4651 100.744 33.0411C100.264 33.6064 99.747 34.1398 99.192 34.6411C98.638 35.1424 98.11 35.5958 97.608 36.0011H102.728V37.4091H95.1764ZM107.952 37.6011C106.938 37.6011 106.064 37.3611 105.328 36.8811C104.602 36.3904 104.042 35.7131 103.648 34.8491C103.264 33.9744 103.072 32.9611 103.072 31.8091C103.072 30.6571 103.264 29.6491 103.648 28.7851C104.042 27.9104 104.602 27.2331 105.328 26.7531C106.064 26.2624 106.938 26.0171 107.952 26.0171C108.965 26.0171 109.834 26.2624 110.56 26.7531C111.285 27.2331 111.84 27.9104 112.224 28.7851C112.618 29.6491 112.816 30.6571 112.816 31.8091C112.816 32.9611 112.618 33.9744 112.224 34.8491C111.84 35.7131 111.285 36.3904 110.56 36.8811C109.834 37.3611 108.965 37.6011 107.952 37.6011ZM107.952 36.0811C108.56 36.0811 109.098 35.9104 109.568 35.5691C110.048 35.2278 110.421 34.7371 110.688 34.0971C110.954 33.4571 111.088 32.6944 111.088 31.8091C111.088 30.9238 110.954 30.1611 110.688 29.5211C110.421 28.8811 110.048 28.3904 109.568 28.0491C109.098 27.7078 108.56 27.5371 107.952 27.5371C107.333 27.5371 106.789 27.7078 106.32 28.0491C105.85 28.3904 105.482 28.8811 105.216 29.5211C104.949 30.1611 104.816 30.9238 104.816 31.8091C104.816 32.6944 104.949 33.4571 105.216 34.0971C105.482 34.7371 105.85 35.2278 106.32 35.5691C106.789 35.9104 107.333 36.0811 107.952 36.0811ZM113.397 37.4091V36.1931C114.122 35.6171 114.816 35.0358 115.477 34.4491C116.138 33.8624 116.725 33.2864 117.237 32.7211C117.76 32.1451 118.17 31.5851 118.469 31.0411C118.768 30.4864 118.917 29.9531 118.917 29.4411C118.917 29.0998 118.858 28.7798 118.741 28.4811C118.624 28.1718 118.432 27.9264 118.165 27.7451C117.898 27.5531 117.541 27.4571 117.093 27.4571C116.421 27.4571 115.914 27.6704 115.573 28.0971C115.242 28.5238 115.082 29.0358 115.093 29.6331H113.445C113.456 28.8438 113.621 28.1824 113.941 27.6491C114.272 27.1158 114.709 26.7104 115.253 26.4331C115.808 26.1558 116.432 26.0171 117.125 26.0171C118.181 26.0171 119.024 26.3158 119.653 26.9131C120.293 27.4998 120.613 28.3211 120.613 29.3771C120.613 30.0064 120.458 30.6304 120.149 31.2491C119.85 31.8678 119.456 32.4651 118.965 33.0411C118.485 33.6064 117.968 34.1398 117.413 34.6411C116.858 35.1424 116.33 35.5958 115.829 36.0011H120.949V37.4091H113.397ZM126.718 37.4091V35.1691H121.102V33.8251L126.446 26.2091H128.398V33.6971H129.966V35.1691H128.398V37.4091H126.718ZM122.942 33.6971H126.814V28.0811L122.942 33.6971Z" fill="white"/>
<path d="M179.996 36.9231L177.35 27.1091H178.946L180.892 35.2291L183.132 27.1091H184.77L186.94 35.2291L188.886 27.1091H190.482L187.794 36.9091H186.058L183.916 29.2231L181.704 36.9091L179.996 36.9231ZM193.471 37.0771C192.79 37.0771 192.183 36.9278 191.651 36.6291C191.128 36.3211 190.718 35.8964 190.419 35.3551C190.12 34.8138 189.971 34.1838 189.971 33.4651C189.971 32.7371 190.116 32.0978 190.405 31.5471C190.704 30.9964 191.114 30.5671 191.637 30.2591C192.169 29.9511 192.785 29.7971 193.485 29.7971C194.166 29.7971 194.759 29.9511 195.263 30.2591C195.767 30.5578 196.159 30.9591 196.439 31.4631C196.719 31.9671 196.859 32.5224 196.859 33.1291C196.859 33.2224 196.854 33.3251 196.845 33.4371C196.845 33.5398 196.84 33.6564 196.831 33.7871H191.427C191.474 34.4591 191.693 34.9724 192.085 35.3271C192.486 35.6724 192.948 35.8451 193.471 35.8451C193.891 35.8451 194.241 35.7518 194.521 35.5651C194.81 35.3691 195.025 35.1078 195.165 34.7811H196.649C196.462 35.4344 196.089 35.9804 195.529 36.4191C194.978 36.8578 194.292 37.0771 193.471 37.0771ZM193.471 31.0151C192.976 31.0151 192.538 31.1644 192.155 31.4631C191.772 31.7524 191.539 32.1911 191.455 32.7791H195.375C195.347 32.2378 195.156 31.8084 194.801 31.4911C194.446 31.1738 194.003 31.0151 193.471 31.0151ZM200.807 37.0771C200.125 37.0771 199.519 36.9278 198.987 36.6291C198.464 36.3211 198.053 35.8964 197.755 35.3551C197.456 34.8138 197.307 34.1838 197.307 33.4651C197.307 32.7371 197.451 32.0978 197.741 31.5471C198.039 30.9964 198.45 30.5671 198.973 30.2591C199.505 29.9511 200.121 29.7971 200.821 29.7971C201.502 29.7971 202.095 29.9511 202.599 30.2591C203.103 30.5578 203.495 30.9591 203.775 31.4631C204.055 31.9671 204.195 32.5224 204.195 33.1291C204.195 33.2224 204.19 33.3251 204.181 33.4371C204.181 33.5398 204.176 33.6564 204.167 33.7871H198.763C198.809 34.4591 199.029 34.9724 199.421 35.3271C199.822 35.6724 200.284 35.8451 200.807 35.8451C201.227 35.8451 201.577 35.7518 201.857 35.5651C202.146 35.3691 202.361 35.1078 202.501 34.7811H203.985C203.798 35.4344 203.425 35.9804 202.865 36.4191C202.314 36.8578 201.628 37.0771 200.807 37.0771ZM200.807 31.0151C200.312 31.0151 199.873 31.1644 199.491 31.4631C199.108 31.7524 198.875 32.1911 198.791 32.7791H202.711C202.683 32.2378 202.491 31.8084 202.137 31.4911C201.782 31.1738 201.339 31.0151 200.807 31.0151ZM204.895 36.9091V26.8291H206.379V32.8351L209.039 29.9651H210.817L207.863 33.1151L211.251 36.9091H209.375L206.379 33.3531V36.9091H204.895ZM212.624 36.9091V28.7891L211.042 29.1531V28.0611L213.212 27.1091H214.164V36.9091H212.624Z" fill="white"/>
</g>
<path d="M240 51.4091H32V170.409H240V51.4091Z" fill="white"/>
<path d="M60 69.6591C58.0716 69.6591 56.1866 70.2309 54.5832 71.3023C52.9798 72.3736 51.7301 73.8964 50.9922 75.6779C50.2542 77.4595 50.0611 79.4199 50.4373 81.3112C50.8136 83.2025 51.7422 84.9398 53.1057 86.3034C54.4693 87.667 56.2066 88.5956 58.0979 88.9718C59.9892 89.348 61.9496 89.1549 63.7312 88.4169C65.5127 87.679 67.0355 86.4293 68.1068 84.8259C69.1782 83.2225 69.75 81.3375 69.75 79.4091C69.7473 76.8241 68.7192 74.3457 66.8913 72.5178C65.0634 70.6899 62.585 69.6618 60 69.6591ZM64.2806 77.6897L59.0306 82.9397C58.961 83.0095 58.8783 83.0648 58.7872 83.1025C58.6962 83.1403 58.5986 83.1597 58.5 83.1597C58.4014 83.1597 58.3038 83.1403 58.2128 83.1025C58.1218 83.0648 58.039 83.0095 57.9694 82.9397L55.7194 80.6897C55.5786 80.549 55.4996 80.3581 55.4996 80.1591C55.4996 79.9601 55.5786 79.7692 55.7194 79.6285C55.8601 79.4877 56.051 79.4087 56.25 79.4087C56.449 79.4087 56.6399 79.4877 56.7806 79.6285L58.5 81.3488L63.2194 76.6285C63.2891 76.5588 63.3718 76.5035 63.4628 76.4658C63.5539 76.4281 63.6515 76.4087 63.75 76.4087C63.8486 76.4087 63.9461 76.4281 64.0372 76.4658C64.1282 76.5035 64.2109 76.5588 64.2806 76.6285C64.3503 76.6982 64.4056 76.7809 64.4433 76.8719C64.481 76.963 64.5004 77.0606 64.5004 77.1591C64.5004 77.2576 64.481 77.3552 64.4433 77.4463C64.4056 77.5373 64.3503 77.62 64.2806 77.6897Z" fill="#7551DC"/>
<path d="M110.667 69.6591C108.739 69.6591 106.854 70.2309 105.25 71.3023C103.647 72.3736 102.397 73.8964 101.659 75.6779C100.921 77.4595 100.728 79.4199 101.104 81.3112C101.481 83.2025 102.409 84.9398 103.773 86.3034C105.136 87.667 106.874 88.5956 108.765 88.9718C110.656 89.348 112.617 89.1549 114.398 88.4169C116.18 87.679 117.702 86.4293 118.774 84.8259C119.845 83.2225 120.417 81.3375 120.417 79.4091C120.414 76.8241 119.386 74.3457 117.558 72.5178C115.73 70.6899 113.252 69.6618 110.667 69.6591ZM114.948 77.6897L109.698 82.9397C109.628 83.0095 109.545 83.0648 109.454 83.1025C109.363 83.1403 109.266 83.1597 109.167 83.1597C109.068 83.1597 108.971 83.1403 108.88 83.1025C108.789 83.0648 108.706 83.0095 108.636 82.9397L106.386 80.6897C106.246 80.549 106.167 80.3581 106.167 80.1591C106.167 79.9601 106.246 79.7692 106.386 79.6285C106.527 79.4877 106.718 79.4087 106.917 79.4087C107.116 79.4087 107.307 79.4877 107.448 79.6285L109.167 81.3488L113.886 76.6285C113.956 76.5588 114.039 76.5035 114.13 76.4658C114.221 76.4281 114.318 76.4087 114.417 76.4087C114.516 76.4087 114.613 76.4281 114.704 76.4658C114.795 76.5035 114.878 76.5588 114.948 76.6285C115.017 76.6982 115.073 76.7809 115.11 76.8719C115.148 76.963 115.167 77.0606 115.167 77.1591C115.167 77.2576 115.148 77.3552 115.11 77.4463C115.073 77.5373 115.017 77.62 114.948 77.6897Z" fill="#7551DC"/>
<path d="M161.333 69.6591C159.405 69.6591 157.52 70.2309 155.916 71.3023C154.313 72.3736 153.063 73.8964 152.325 75.6779C151.587 77.4595 151.394 79.4199 151.77 81.3112C152.147 83.2025 153.075 84.9398 154.439 86.3034C155.802 87.667 157.54 88.5956 159.431 88.9718C161.322 89.348 163.283 89.1549 165.064 88.4169C166.846 87.679 168.368 86.4293 169.44 84.8259C170.511 83.2225 171.083 81.3375 171.083 79.4091C171.08 76.8241 170.052 74.3457 168.224 72.5178C166.396 70.6899 163.918 69.6618 161.333 69.6591ZM165.614 77.6897L160.364 82.9397C160.294 83.0095 160.211 83.0648 160.12 83.1025C160.029 83.1403 159.932 83.1597 159.833 83.1597C159.734 83.1597 159.637 83.1403 159.546 83.1025C159.455 83.0648 159.372 83.0095 159.302 82.9397L157.052 80.6897C156.912 80.549 156.833 80.3581 156.833 80.1591C156.833 79.9601 156.912 79.7692 157.052 79.6285C157.193 79.4877 157.384 79.4087 157.583 79.4087C157.782 79.4087 157.973 79.4877 158.114 79.6285L159.833 81.3488L164.552 76.6285C164.622 76.5588 164.705 76.5035 164.796 76.4658C164.887 76.4281 164.984 76.4087 165.083 76.4087C165.182 76.4087 165.279 76.4281 165.37 76.4658C165.461 76.5035 165.544 76.5588 165.614 76.6285C165.683 76.6982 165.739 76.7809 165.776 76.8719C165.814 76.963 165.833 77.0606 165.833 77.1591C165.833 77.2576 165.814 77.3552 165.776 77.4463C165.739 77.5373 165.683 77.62 165.614 77.6897Z" fill="#7551DC"/>
<path d="M212 69.6591C210.072 69.6591 208.187 70.2309 206.583 71.3023C204.98 72.3736 203.73 73.8964 202.992 75.6779C202.254 77.4595 202.061 79.4199 202.437 81.3112C202.814 83.2025 203.742 84.9398 205.106 86.3034C206.469 87.667 208.207 88.5956 210.098 88.9718C211.989 89.348 213.95 89.1549 215.731 88.4169C217.513 87.679 219.035 86.4293 220.107 84.8259C221.178 83.2225 221.75 81.3375 221.75 79.4091C221.747 76.8241 220.719 74.3457 218.891 72.5178C217.063 70.6899 214.585 69.6618 212 69.6591ZM216.281 77.6897L211.031 82.9397C210.961 83.0095 210.878 83.0648 210.787 83.1025C210.696 83.1403 210.599 83.1597 210.5 83.1597C210.401 83.1597 210.304 83.1403 210.213 83.1025C210.122 83.0648 210.039 83.0095 209.969 82.9397L207.719 80.6897C207.579 80.549 207.5 80.3581 207.5 80.1591C207.5 79.9601 207.579 79.7692 207.719 79.6285C207.86 79.4877 208.051 79.4087 208.25 79.4087C208.449 79.4087 208.64 79.4877 208.781 79.6285L210.5 81.3488L215.219 76.6285C215.289 76.5588 215.372 76.5035 215.463 76.4658C215.554 76.4281 215.651 76.4087 215.75 76.4087C215.849 76.4087 215.946 76.4281 216.037 76.4658C216.128 76.5035 216.211 76.5588 216.281 76.6285C216.35 76.6982 216.406 76.7809 216.443 76.8719C216.481 76.963 216.5 77.0606 216.5 77.1591C216.5 77.2576 216.481 77.3552 216.443 77.4463C216.406 77.5373 216.35 77.62 216.281 77.6897Z" fill="#7551DC"/>
<path d="M67 107.409H52C49.7909 107.409 48 109.2 48 111.409V126.409C48 128.618 49.7909 130.409 52 130.409H67C69.2091 130.409 71 128.618 71 126.409V111.409C71 109.2 69.2091 107.409 67 107.409Z" fill="#FCEBD1"/>
<path d="M118 107.409H103C100.791 107.409 99 109.2 99 111.409V126.409C99 128.618 100.791 130.409 103 130.409H118C120.209 130.409 122 128.618 122 126.409V111.409C122 109.2 120.209 107.409 118 107.409Z" fill="#FCEBD1"/>
<path d="M169 107.409H154C151.791 107.409 150 109.2 150 111.409V126.409C150 128.618 151.791 130.409 154 130.409H169C171.209 130.409 173 128.618 173 126.409V111.409C173 109.2 171.209 107.409 169 107.409Z" fill="#FCEBD1"/>
<path d="M220 107.409H205C202.791 107.409 201 109.2 201 111.409V126.409C201 128.618 202.791 130.409 205 130.409H220C222.209 130.409 224 128.618 224 126.409V111.409C224 109.2 222.209 107.409 220 107.409Z" fill="#FCEBD1"/>
<path d="M67 146.409H52C49.7909 146.409 48 148.2 48 150.409V165.409C48 167.618 49.7909 169.409 52 169.409H67C69.2091 169.409 71 167.618 71 165.409V150.409C71 148.2 69.2091 146.409 67 146.409Z" fill="#FCEBD1"/>
<path d="M118 146.409H103C100.791 146.409 99 148.2 99 150.409V165.409C99 167.618 100.791 169.409 103 169.409H118C120.209 169.409 122 167.618 122 165.409V150.409C122 148.2 120.209 146.409 118 146.409Z" fill="#FCEBD1"/>
<path d="M169 146.409H154C151.791 146.409 150 148.2 150 150.409V165.409C150 167.618 151.791 169.409 154 169.409H169C171.209 169.409 173 167.618 173 165.409V150.409C173 148.2 171.209 146.409 169 146.409Z" fill="#FCEBD1"/>
<path d="M220 146.409H205C202.791 146.409 201 148.2 201 150.409V165.409C201 167.618 202.791 169.409 205 169.409H220C222.209 169.409 224 167.618 224 165.409V150.409C224 148.2 222.209 146.409 220 146.409Z" fill="#FCEBD1"/>
<defs>
<filter id="filter0_d_2039_81" x="-2.23505" y="0.693189" width="256.907" height="86.9072" filterUnits="userSpaceOnUse" color-interpolation-filters="sRGB">
<feFlood flood-opacity="0" result="BackgroundImageFix"/>
<feColorMatrix in="SourceAlpha" type="matrix" values="0 0 0 0 0 0 0 0 0 0 0 0 0 0 0 0 0 0 127 0" result="hardAlpha"/>
<feOffset dx="-9.78145" dy="11.7377"/>
<feGaussianBlur stdDeviation="12.2268"/>
<feComposite in2="hardAlpha" operator="out"/>
<feColorMatrix type="matrix" values="0 0 0 0 0.384371 0 0 0 0 0.102708 0 0 0 0 0.483333 0 0 0 0.05 0"/>
<feBlend mode="normal" in2="BackgroundImageFix" result="effect1_dropShadow_2039_81"/>
<feBlend mode="normal" in="SourceGraphic" in2="effect1_dropShadow_2039_81" result="shape"/>
</filter>
</defs>
</svg>
